<svg xmlns="http://www.w3.org/2000/svg" viewBox="0 0 2048 680" width="2048" height="680" role="img"><defs><linearGradient id="sky" x1="0" x2="1" y1="0" y2="1"><stop stop-color="#ffe7a3"/><stop offset=".5" stop-color="#fff8da"/><stop offset="1" stop-color="#dff7ff"/></linearGradient><linearGradient id="txt" x1="0" x2="1"><stop stop-color="#ff7a00"/><stop offset=".55" stop-color="#ff9a18"/><stop offset="1" stop-color="#2f7d32"/></linearGradient><filter id="s"><feDropShadow dx="0" dy="12" stdDeviation="10" flood-color="#7c2d12" flood-opacity=".25"/></filter></defs><rect width="2048" height="680" fill="url(#sky)"/><circle cx="1024" cy="225" r="430" fill="#fff7bd" opacity=".5"/><path d="M0 412 C360 360 655 420 1030 388 C1400 360 1660 370 2048 335 L2048 680 L0 680 Z" fill="#78c8d7" opacity=".55"/><g fill="none" stroke="#1b5e20" stroke-width="13" stroke-linecap="round" opacity=".5"><path d="M35 0 C86 70 102 135 110 222"/><path d="M2012 0 C1948 62 1918 130 1912 224"/></g><g transform="translate(130 382)" filter="url(#s)"><path d="M0 88 C180 160 470 150 665 48 C570 175 180 205 0 88 Z" fill="#3b210d"/><path d="M6 84 C185 128 438 120 650 48" stroke="#d89b18" stroke-width="9" fill="none"/><path d="M28 78 C6 14 4 -48 35 -112" stroke="#3b210d" stroke-width="18" fill="none"/><g fill="#fff7ed"><circle cx="150" cy="52" r="11"/><circle cx="205" cy="60" r="11"/><circle cx="260" cy="64" r="11"/><circle cx="315" cy="61" r="11"/><circle cx="370" cy="53" r="11"/><circle cx="425" cy="43" r="11"/><circle cx="480" cy="33" r="11"/></g><text x="395" y="18" font-size="34">🚩</text></g><g transform="translate(1400 350)" filter="url(#s)"><text x="145" y="0" font-size="150">🎭</text><text x="330" y="135" font-size="95">🪔</text><ellipse cx="238" cy="220" rx="315" ry="82" fill="#facc15"/><ellipse cx="238" cy="220" rx="255" ry="64" fill="#f97316"/><ellipse cx="238" cy="220" rx="195" ry="48" fill="#fff7ed"/><ellipse cx="238" cy="220" rx="135" ry="32" fill="#dc2626"/><ellipse cx="238" cy="220" rx="72" ry="18" fill="#16a34a"/><text x="-20" y="130" font-size="80">🌺</text></g><g text-anchor="middle" filter="url(#s)"><text x="1024" y="154" font-family="Georgia,serif" font-size="92" font-style="italic" fill="#0f5132">Happy</text><text x="1024" y="288" font-family="Georgia,serif" font-size="156" font-style="italic" font-weight="700" fill="url(#txt)">Onam!</text><text x="1024" y="360" font-family="Noto Sans Malayalam,Arial,sans-serif" font-size="52" font-weight="800" fill="#17643a">ഓണാശംസകൾ</text><text x="1024" y="425" font-family="Georgia,serif" font-size="39" font-weight="700" fill="#9a6a18">Chathayam Special</text></g><g transform="translate(792 470)"><a href="/revision-2021.html"><rect width="210" height="60" rx="12" fill="#ff7a00"/><text x="105" y="39" text-anchor="middle" font-size="25" font-family="Arial" font-weight="700" fill="white">Explore Notes</text></a><a href="/revision-2021.html"><rect x="240" width="210" height="60" rx="12" fill="white" stroke="#e5e7eb"/><text x="345" y="39" text-anchor="middle" font-size="25" font-family="Arial" font-weight="700" fill="#14532d">View Syllabus</text></a></g><g font-size="30" opacity=".8"><text x="520" y="92">🌼</text><text x="1260" y="84">🌺</text><text x="640" y="540">🌸</text><text x="1500" y="160">🌼</text><text x="1780" y="545">🌺</text></g></svg>